# AST/ASF file generated using VICON BodyLanguage
# -----------------------------------------------
:version 1.10
:name VICON
:units
  mass 1.0
  length 0.45
  angle deg
:documentation
   .ast/.asf automatically generated from VICON data using
   VICON BodyBuilder and BodyLanguage model FoxedUp or BRILLIANT.MOD
:root
   order TX TY TZ RX RY RZ
   axis XYZ
   position 0 0 0  
   orientation 0 0 0 
:bonedata
  begin
     id 1 
     name lhipjoint
     direction 0.643824 -0.71708 0.266994 
     length 2.52133 
     axis 0 0 0  XYZ
  end
  begin
     id 2 
     name lfemur
     direction 0.34202 -0.939693 0  
     length 7.51824  
     axis 0 0 20  XYZ
    dof rx ry rz
    limits (-160.0 20.0)
           (-70.0 70.0)
           (-60.0 70.0)
  end
  begin
     id 3 
     name ltibia
     direction 0.34202 -0.939693 0   
     length 7.3685   
     axis 0 0 20   XYZ
    dof rx
    limits (-10.0 170.0)
  end
  begin
     id 4 
     name lfoot
     direction 0.105419 -0.289636 0.951314   
     length 2.20972   
     axis -90 7.62852e-016 20   XYZ
    dof rx rz
    limits (-45.0 90.0)
           (-70.0 20.0)
  end
  begin
     id 5 
     name ltoes
     direction 1.53549e-011 -4.21833e-011 1   
     length 1.10139   
     axis -90 7.62852e-016 20   XYZ
    dof rx
    limits (-90.0 20.0)
  end
  begin
     id 6 
     name rhipjoint
     direction -0.608823 -0.743445 0.276811   
     length 2.43192  
     axis 0 0 0  XYZ 
  end
  begin
     id 7 
     name rfemur
     direction -0.34202 -0.939693 0   
     length 7.69715   
     axis 0 0 -20   XYZ
    dof rx ry rz
    limits (-160.0 20.0)
           (-70.0 70.0)
           (-70.0 60.0)
  end
  begin
     id 8 
     name rtibia
     direction -0.34202 -0.939693 0   
     length 7.44924   
     axis 0 0 -20   XYZ
    dof rx
    limits (-10.0 170.0)
 end
 begin
     id 9 
     name rfoot
     direction -0.103614 -0.284677 0.953007   
     length 2.22623  
     axis -90 -7.62852e-016 -20   XYZ
    dof rx rz
    limits (-45.0 90.0)
           (-20.0 70.0)
  end
  begin
     id 10 
     name rtoes
     direction -1.53537e-011 -4.22026e-011 1   
     length 1.11   
     axis -90 -7.62852e-016 -20   XYZ
    dof rx
    limits (-90.0 20.0)
  end
  begin
     id 11 
     name lowerback
     direction -0.0101212 0.99662 -0.0815298   
     length 2.08277   
     axis 0 0 0   XYZ
    dof rx ry rz
    limits (-20.0 45.0)
           (-30.0 30.0)
           (-30.0 30.0)
  end
  begin
     id 12 
     name upperback
     direction 0.024314 0.999591 -0.0150645   
     length 2.08524   
     axis 0 0 0   XYZ
    dof rx ry rz
    limits (-20.0 45.0)
           (-30.0 30.0)
           (-30.0 30.0)
  end
  begin
     id 13 
     name thorax
     direction 0.0285959 0.999323 0.0231357   
     length 2.09645   
     axis 0 0 0   XYZ
    dof rx ry rz
    limits (-20.0 45.0)
           (-30.0 30.0)
           (-30.0 30.0)
  end
  begin
     id 14 
     name lowerneck
     direction -0.065512 0.979301 0.191515   
     length 1.63798   
     axis 0 0 0   XYZ
    dof rx ry rz
    limits (-20.0 45.0)
           (-30.0 30.0)
           (-30.0 30.0)
  end
  begin
     id 15 
     name upperneck
     direction 0.0498479 0.98191 -0.182667   
     length 1.68731   
     axis 0 0 0   XYZ
    dof rx ry rz
    limits (-20.0 45.0)
           (-30.0 30.0)
           (-30.0 30.0)
  end
  begin
     id 16
     name head
     direction 0.0230358 0.996257 -0.0833175  
     length 1.69785  
     axis 0 0 0   XYZ
    dof rx ry rz
    limits (-20.0 45.0)
           (-30.0 30.0)
           (-30.0 30.0)
  end
  begin
     id 17 
     name lclavicle
     direction 0.967963 0.201165 -0.150269  
     length 3.63976  
     axis 0 0 0   XYZ
    dof ry rz
    limits (-20.0 10.0)
           (0.0 20.0)
  end
  begin
     id 18 
     name lhumerus
     direction 1 -4.48954e-011 -2.92837e-028   
     length 5.32462   
     axis 180 -30 -90   XYZ
    dof rx ry rz
    limits (-60.0 90.0)
           (-90.0 90.0)
           (-90.0 90.0)
  end
  begin
     id 19
     name lradius
     direction 1 -4.48958e-011 -6.39511e-027   
     length 3.48402   
     axis 180 -30 -90   XYZ
    dof rx
    limits (-10.0 170.0)
  end
  begin
     id 20
     name lwrist
     direction 1 -4.48975e-011 -1.1413e-026   
     length 1.74201   
     axis 6.88575e-015 90 90   XYZ
    dof ry
    limits (-180.0 0.0)
 end
  begin
     id 21 
     name lhand
     direction 1 -4.48899e-011 -2.28192e-026   
     length 0.572476   
     axis 1.45643e-014 90 90   XYZ
    dof rx rz
    limits (-90.0 90.0)
           (-45.0 45.0)
  end
  begin
     id 22 
     name lfingers
     direction 1 -4.49155e-011 -4.5684e-026   
     length 0.461545   
     axis 2.91283e-014 90 90   XYZ
    dof rx
    limits (0.0 90.0)
  end
  begin
     id 23
     name lthumb
     direction 0.707107 -6.34943e-011 0.707107   
     length 0.662688   
     axis -90 45 -2.25915e-014   XYZ
    dof rx rz
    limits (-45.0 45.0)
           (-45.0 45.0)
  end
  begin
     id 24 
     name rclavicle
     direction -0.964103 0.264019 -0.0282629   
     length 3.54491  
     axis 0 0 0   XYZ 
    dof ry rz
    limits (-10.0 20.0)
           (-20.0 0.0)
  end
  begin
     id 25 
     name rhumerus
     direction -1 -4.48964e-011 -2.45032e-027  
     length 5.33589   
     axis 180 30 90   XYZ
    dof rx ry rz
    limits (-90.0 60.0)
           (-90.0 90.0)
           (-90.0 90.0)
  end
  begin
     id 26 
     name rradius
     direction -1 -4.48987e-011 -1.55093e-027   
     length 3.64134   
     axis 180 30 90   XYZ
    dof rx
    limits (-10.0 170.0)
  end
  begin
     id 27 
     name rwrist
     direction -1 -4.4897e-011 -1.14128e-026   
     length 1.82067   
     axis 6.88575e-015 -90 -90   XYZ
    dof ry
    limits (-180.0 0.0)
  end
  begin
     id 28
     name rhand
     direction -1 -4.49021e-011 -2.28301e-026   
     length 0.734811   
     axis 1.45643e-014 -90 -90   XYZ
    dof rx rz
    limits (-90.0 90.0)
           (-45.0 45.0)
  end
  begin
     id 29
     name rfingers
     direction -1 -4.48862e-011 -4.56319e-026   
     length 0.592424   
     axis 2.91283e-014 -90 -90   XYZ
    dof rx
    limits (0.0 90.0)
  end
  begin
     id 30
     name rthumb
     direction -0.707107 -6.34978e-011 0.707107   
     length 0.850605   
     axis -90 -45 2.25915e-014   XYZ
    dof rx rz
    limits (-45.0 45.0)
           (-45.0 45.0)
  end
:hierarchy
  begin
    root lhipjoint rhipjoint lowerback
    lhipjoint lfemur
    lfemur ltibia
    ltibia lfoot
    lfoot ltoes
    rhipjoint rfemur
    rfemur rtibia
    rtibia rfoot
    rfoot rtoes
    lowerback upperback
    upperback thorax
    thorax lowerneck lclavicle rclavicle
    lowerneck upperneck
    upperneck head
    lclavicle lhumerus
    lhumerus lradius
    lradius lwrist
    lwrist lhand lthumb
    lhand lfingers
    rclavicle rhumerus
    rhumerus rradius
    rradius rwrist
    rwrist rhand rthumb
    rhand rfingers
  end

#!OML:ASF F:\VICON\USERDATA\INSTALL\rory3\rory3.ASF
:FULLY-SPECIFIED
:DEGREES
278
root -1.55262 17.7034 -1.05542 4.76368 -25.4687 -9.27444
lowerback 3.79806 -4.30097 -4.05339
upperback -0.419566 -5.98321 -2.40367
thorax -2.39981 -2.94407 0.12371
lowerneck -10.8457 -19.7109 -15.0232
upperneck 1.70725 -25.2362 12.5009
head 5.58341 -12.0753 3.35736
rclavicle -2.16675e-014 -1.90833e-014
rhumerus 38.8469 -31.1583 -17.717
rradius 25.53
rwrist 33.1509
rhand -17.1168 -15.2645
rfingers 7.12502
rthumb 9.12259 -45.0472
lclavicle -2.16675e-014 -1.90833e-014
lhumerus -38.4593 14.6572 61.9123
lradius 32.4516
lwrist -6.11296
lhand -12.0227 27.052
lfingers 7.12502
lthumb 14.0351 56.5581
rfemur -10.2356 4.76736 30.5033
rtibia 27.5911
rfoot -9.99292 8.44179
rtoes 16.08
lfemur -3.48389 4.53691 -7.58355
ltibia 35.3226
lfoot -20.5948 20.3215
ltoes -18.9815
279
root -1.56202 17.7035 -1.06216 4.72124 -25.6006 -9.31447
lowerback 3.91894 -4.25403 -4.09345
upperback -0.444681 -5.92834 -2.31452
thorax -2.48148 -2.91348 0.244984
lowerneck -10.615 -19.7656 -15.3573
upperneck 1.57713 -25.299 12.6358
head 5.57341 -12.1115 3.44231
rclavicle 5.89397e-014 5.56597e-014
rhumerus 38.7131 -31.0451 -17.4384
rradius 25.6214
rwrist 32.861
rhand -17.3212 -15.2685
rfingers 7.12502
rthumb 8.92541 -45.0597
lclavicle 5.89397e-014 5.56597e-014
lhumerus -38.456 14.6446 62.0751
lradius 32.4445
lwrist -6.22886
lhand -12.1334 26.6893
lfingers 7.12502
lthumb 13.9284 56.2028
rfemur -10.1519 4.76495 30.5902
rtibia 27.5312
rfoot -9.90245 8.45471
rtoes 16.139
lfemur -3.48144 4.74302 -7.42446
ltibia 35.5022
lfoot -20.4939 20.0569
ltoes -19.1632
280
root -1.57353 17.704 -1.06697 4.78902 -25.7354 -9.49096
lowerback 3.9145 -4.26176 -3.955
upperback -0.431025 -5.93081 -2.29908
thorax -2.47693 -2.91683 0.184392
lowerneck -10.5197 -19.74 -15.3802
upperneck 1.5183 -25.2889 12.781
head 5.56399 -12.1063 3.49625
rclavicle -4.32357e-015 -3.65764e-014
rhumerus 38.8146 -31.1378 -17.6979
rradius 25.6105
rwrist 32.9046
rhand -17.4128 -15.2248
rfingers 7.12502
rthumb 8.83704 -45.0198
lclavicle -4.32357e-015 -3.65764e-014
lhumerus -38.4605 14.8383 61.8552
lradius 32.4807
lwrist -6.49767
lhand -12.0549 26.0829
lfingers 7.12502
lthumb 14.0041 55.5912
rfemur -10.1087 4.81663 30.8086
rtibia 27.4744
rfoot -9.79103 8.5002
rtoes 16.4322
lfemur -3.53315 4.95166 -7.12483
ltibia 35.6934
lfoot -20.4266 19.7926
ltoes -19.275
281
root -1.58524 17.7012 -1.06783 4.79597 -25.9882 -9.57329
lowerback 3.90457 -4.27337 -3.88957
upperback -0.415031 -5.94299 -2.33117
thorax -2.46449 -2.92455 0.115081
lowerneck -10.5058 -19.6378 -15.2915
upperneck 1.54375 -25.1787 12.8559
head 5.55836 -12.0512 3.52685
rclavicle 4.93483e-014 1.90833e-014
rhumerus 38.9853 -31.1762 -18.0776
rradius 25.643
rwrist 32.89
rhand -17.2801 -15.2395
rfingers 7.12502
rthumb 8.9651 -45.029
lclavicle 4.93483e-014 1.90833e-014
lhumerus -38.5138 15.1132 61.4952
lradius 32.5037
lwrist -6.89521
lhand -11.5163 26.1005
lfingers 7.12502
lthumb 14.5231 55.5721
rfemur -10.0385 4.91576 30.926
rtibia 27.4378
rfoot -9.68465 8.58535
rtoes 16.3281
lfemur -3.48701 5.24613 -6.94979
ltibia 35.8561
lfoot -20.2388 19.6598
ltoes -19.8959
282
root -1.59414 17.6979 -1.06481 4.69605 -26.2416 -9.53067
lowerback 3.94416 -4.22992 -3.92957
upperback -0.419676 -5.88925 -2.31841
thorax -2.48761 -2.89664 0.150668
lowerneck -10.4356 -19.5853 -15.5031
upperneck 1.6322 -25.1051 12.9258
head 5.60208 -12.0146 3.58187
rclavicle -1.87355e-014 -3.49861e-014
rhumerus 39.0242 -31.1446 -18.1397
rradius 25.7322
rwrist 32.8678
rhand -17.2243 -14.9513
rfingers 7.12502
rthumb 9.01893 -44.7385
lclavicle -1.87355e-014 -3.49861e-014
lhumerus -38.5534 15.2745 61.398
lradius 32.5071
lwrist -7.51942
lhand -10.4741 26.7509
lfingers 7.12502
lthumb 15.5271 56.1475
rfemur -9.89635 5.02735 30.9001
rtibia 27.4044
rfoot -9.60454 8.65588
rtoes 16.5727
lfemur -3.36736 5.42596 -6.92992
ltibia 35.9991
lfoot -20.1171 19.5929
ltoes -20.2788
283
root -1.60118 17.6976 -1.06171 4.60015 -26.3985 -9.4815
lowerback 3.9997 -4.21307 -3.97582
upperback -0.423007 -5.8708 -2.26512
thorax -2.51245 -2.88578 0.233964
lowerneck -10.3802 -19.5411 -15.7712
upperneck 1.68153 -25.0316 13.0229
head 5.64587 -11.9767 3.65085
rclavicle 2.48978e-014 2.06736e-014
rhumerus 39.1142 -31.0834 -18.1254
rradius 25.8003
rwrist 32.8713
rhand -17.3284 -14.6408
rfingers 7.12502
rthumb 8.91845 -44.4323
lclavicle 2.48978e-014 2.06736e-014
lhumerus -38.6353 15.3359 61.5109
lradius 32.5444
lwrist -7.87571
lhand -10.0295 27.026
lfingers 7.12502
lthumb 15.9553 56.3888
rfemur -9.7813 5.09621 30.8689
rtibia 27.3968
rfoot -9.52602 8.69409
rtoes 16.7236
lfemur -3.27741 5.53324 -6.92958
ltibia 36.1265
lfoot -20.0589 19.5021
ltoes -20.2359
284
root -1.60904 17.6986 -1.06302 4.55936 -26.5205 -9.56197
lowerback 4.08573 -4.21215 -3.91961
upperback -0.392692 -5.8689 -2.21471
thorax -2.52956 -2.88508 0.260245
lowerneck -10.4495 -19.4905 -15.7605
upperneck 1.69496 -24.9505 12.9899
head 5.64451 -11.9358 3.64886
rclavicle 3.06128e-014 4.77083e-015
rhumerus 39.3367 -31.1876 -18.3939
rradius 25.803
rwrist 33.1573
rhand -17.2548 -14.4749
rfingers 7.12502
rthumb 8.98944 -44.2633
lclavicle 3.06128e-014 4.77083e-015
lhumerus -38.7086 15.2641 61.6152
lradius 32.6683
lwrist -7.83953
lhand -10.2475 26.8768
lfingers 7.12502
lthumb 15.7453 56.2563
rfemur -9.68745 5.08734 30.9794
rtibia 27.4045
rfoot -9.45802 8.75628
rtoes 16.7541
lfemur -3.20685 5.64532 -6.78659
ltibia 36.2541
lfoot -19.9093 19.451
ltoes -20.5496
285
root -1.61623 17.7036 -1.06673 4.51784 -26.6242 -9.46029
lowerback 4.07012 -4.20663 -3.98468
upperback -0.346847 -5.86358 -2.27472
thorax -2.47357 -2.88353 0.230804
lowerneck -10.4993 -19.4428 -15.6328
upperneck 1.64768 -24.8954 13.0143
head 5.61947 -11.9073 3.65017
rclavicle 6.01324e-015 4.77083e-015
rhumerus 39.4502 -31.3323 -18.6936
rradius 25.8256
rwrist 33.3824
rhand -17.1944 -14.4539
rfingers 7.12502
rthumb 9.04778 -44.2398
lclavicle 6.01324e-015 4.77083e-015
lhumerus -38.6507 15.3005 61.5466
lradius 32.7458
lwrist -7.89174
lhand -10.3984 26.731
lfingers 7.12502
lthumb 15.6 56.1219
rfemur -9.70331 5.0505 30.9024
rtibia 27.4078
rfoot -9.41656 8.83768
rtoes 16.6427
lfemur -3.25876 5.71961 -6.8264
ltibia 36.3972
lfoot -19.8367 19.3014
ltoes -20.5273
286
root -1.62144 17.7086 -1.06731 4.50388 -26.7522 -9.20455
lowerback 3.95383 -4.18125 -4.15303
upperback -0.351094 -5.83358 -2.35434
thorax -2.40562 -2.86835 0.230519
lowerneck -10.6026 -19.438 -15.5717
upperneck 1.72446 -24.888 13.0002
head 5.6495 -11.8987 3.62878
rclavicle 3.80673e-014 -1.74931e-014
rhumerus 39.3675 -31.2993 -18.7091
rradius 25.9661
rwrist 33.3315
rhand -17.3144 -14.8282
rfingers 7.12502
rthumb 8.93201 -44.6191
lclavicle 3.80673e-014 -1.74931e-014
lhumerus -38.5608 15.3714 61.5029
lradius 32.714
lwrist -7.88845
lhand -10.5395 26.4681
lfingers 7.12502
lthumb 15.4641 55.8695
rfemur -9.83128 4.97683 30.6554
rtibia 27.412
rfoot -9.25761 8.93477
rtoes 16.748
lfemur -3.40507 5.7484 -7.04137
ltibia 36.5403
lfoot -19.8916 19.0934
ltoes -19.8624
287
root -1.62676 17.7062 -1.0663 4.53378 -26.9396 -9.19807
lowerback 3.91082 -4.15645 -4.10918
upperback -0.325311 -5.79533 -2.37142
thorax -2.36215 -2.85124 0.182558
lowerneck -10.8741 -19.435 -15.343
upperneck 1.86074 -24.8664 12.8174
head 5.67772 -11.8817 3.53008
rclavicle 6.47541e-014 5.08889e-014
rhumerus 39.3177 -31.2522 -18.7602
rradius 26.1433
rwrist 33.2351
rhand -17.3355 -15.1514
rfingers 7.12502
rthumb 8.91161 -44.9432
lclavicle 6.47541e-014 5.08889e-014
lhumerus -38.3999 15.4365 61.4647
lradius 32.5541
lwrist -7.77495
lhand -10.5725 26.387
lfingers 7.12502
lthumb 15.4323 55.7909
rfemur -9.87414 5.02769 30.6615
rtibia 27.4161
rfoot -9.1204 8.98925
rtoes 16.7681
lfemur -3.45845 5.9104 -6.98816
ltibia 36.6846
lfoot -19.8067 18.9044
ltoes -19.7539
